<svg width="24" height="24" viewBox="0 0 24 24" fill="none" xmlns="http://www.w3.org/2000/svg">
<path fill-rule="evenodd" clip-rule="evenodd" d="M2.47034 6.97034C2.54001 6.9005 2.62277 6.84508 2.71389 6.80727C2.80501 6.76946 2.90269 6.75 3.00134 6.75C3.09999 6.75 3.19767 6.76946 3.28879 6.80727C3.37991 6.84508 3.46267 6.9005 3.53234 6.97034L12.0013 15.4408L20.4703 6.97034C20.5401 6.90061 20.6229 6.84529 20.714 6.80756C20.8051 6.76982 20.9027 6.75039 21.0013 6.75039C21.1 6.75039 21.1976 6.76982 21.2887 6.80756C21.3798 6.84529 21.4626 6.90061 21.5323 6.97034C21.6021 7.04007 21.6574 7.12286 21.6951 7.21396C21.7329 7.30507 21.7523 7.40272 21.7523 7.50134C21.7523 7.59996 21.7329 7.69761 21.6951 7.78872C21.6574 7.87982 21.6021 7.96261 21.5323 8.03234L12.5323 17.0323C12.4627 17.1022 12.3799 17.1576 12.2888 17.1954C12.1977 17.2332 12.1 17.2527 12.0013 17.2527C11.9027 17.2527 11.805 17.2332 11.7139 17.1954C11.6228 17.1576 11.54 17.1022 11.4703 17.0323L2.47034 8.03234C2.4005 7.96267 2.34508 7.87991 2.30727 7.78879C2.26946 7.69767 2.25 7.59999 2.25 7.50134C2.25 7.40269 2.26946 7.30501 2.30727 7.21389C2.34508 7.12277 2.4005 7.04001 2.47034 6.97034Z" fill="white" fill-opacity="0.5"/>
</svg>
