<svg width="80" height="80" viewBox="0 0 80 80" fill="none" xmlns="http://www.w3.org/2000/svg">
<path d="M59.9072 16.1804C59.8006 15.6476 59.4809 15.2213 58.9374 15.1147C51.3921 13.303 43.8468 15.3278 39.6372 21.509V14.4753C39.6372 13.7293 38.9871 13.0898 38.2411 13.0898C37.4951 13.0898 36.845 13.7293 36.845 14.4753V21.509C36.1949 20.5499 35.3317 19.5907 34.4684 18.7381C30.2588 14.9016 24.1203 13.5161 17.5448 15.1147C17.0013 15.2213 16.575 15.6476 16.575 16.1804C14.4223 29.1822 23.9071 38.6671 36.845 36.4291V41.9709C33.6052 42.2906 30.6958 43.9957 28.7562 46.3403V42.2906C28.7562 41.5445 28.1061 40.9051 27.3494 40.9051C26.5928 40.9051 25.9533 41.5445 25.9533 42.2906V53.8003C25.9533 60.4078 31.3459 65.843 38.1345 65.843C41.9071 65.843 45.3601 64.1378 47.6194 61.3669V65.4167C47.6194 66.1627 48.2695 66.8021 49.0261 66.8021C49.7828 66.8021 50.4329 66.1627 50.4329 65.4167V54.0135C50.4329 47.8323 45.6905 42.7168 39.6478 42.0774V40.692C46.4365 41.3314 51.829 47.0863 51.829 53.9069C51.829 54.6529 52.4791 55.2923 53.2358 55.2923C53.9924 55.2923 54.6425 54.6529 54.6425 53.9069C54.6425 45.5943 48.067 38.6671 39.765 38.0277V36.4291C52.5963 38.7737 62.0812 29.2888 59.9285 16.1804H59.9072ZM19.2606 17.5658C28.3192 15.7541 35.6514 20.4433 36.9409 28.7559V31.9531L29.3956 25.1325C28.8521 24.5996 27.9889 24.7062 27.456 25.239C26.9125 25.7719 27.0297 26.6245 27.5626 27.1573L35.321 34.0845C25.0794 35.1502 17.9604 27.9033 19.2606 17.5658ZM47.8326 54.0135C47.8326 59.1289 43.623 63.3918 38.3477 63.3918C33.0723 63.3918 28.8628 59.2355 28.8628 54.0135C28.8628 48.7914 33.0617 44.6352 38.3477 44.6352C43.6336 44.6352 47.8326 48.898 47.8326 54.0135ZM41.3636 34.0845L49.1221 27.1573C49.6656 26.6245 49.6656 25.7719 49.2286 25.239C48.8024 24.7062 47.8326 24.7062 47.2891 25.1325L39.7437 31.9531V28.7559C41.1398 20.5499 48.472 15.8607 57.424 17.5658C58.0741 22.7879 51.4986 35.1502 41.3636 34.0845Z" fill="#FB7303"/>
<path d="M51.818 21.7227C52.596 21.7227 53.2247 22.3408 53.2247 23.1081C53.2247 23.8754 52.596 24.4935 51.818 24.4935C51.04 24.4935 50.4219 23.8754 50.4219 23.1081C50.4219 22.3408 51.0507 21.7227 51.818 21.7227Z" fill="#FB7303"/>
<path d="M65.3013 25.9844C66.0793 25.9844 66.6974 26.6025 66.6974 27.3698C66.6974 28.1371 66.0686 28.7552 65.3013 28.7552C64.534 28.7552 63.8945 28.1371 63.8945 27.3698C63.8945 26.6025 64.5233 25.9844 65.3013 25.9844Z" fill="#FB7303"/>
<path d="M31.6617 10C32.4397 10 33.0684 10.6181 33.0684 11.3854C33.0684 12.1527 32.4397 12.7708 31.6617 12.7708C30.8837 12.7708 30.2656 12.1527 30.2656 11.3854C30.2656 10.6181 30.8944 10 31.6617 10Z" fill="#FB7303"/>
<path d="M12.8023 30.1439C13.5734 30.1439 14.1984 29.5236 14.1984 28.7585C14.1984 27.9933 13.5734 27.373 12.8023 27.373C12.0313 27.373 11.4062 27.9933 11.4062 28.7585C11.4062 29.5236 12.0313 30.1439 12.8023 30.1439Z" fill="#FB7303"/>
<path d="M20.8766 40.6953C21.6545 40.6953 22.2727 41.3134 22.2727 42.0807C22.2727 42.8481 21.6439 43.4662 20.8766 43.4662C20.1092 43.4662 19.4805 42.8481 19.4805 42.0807C19.4805 41.3134 20.1092 40.6953 20.8766 40.6953Z" fill="#FB7303"/>
<path d="M15.4859 66.056C16.257 66.056 16.882 65.4357 16.882 64.6706C16.882 63.9054 16.257 63.2852 15.4859 63.2852C14.7149 63.2852 14.0898 63.9054 14.0898 64.6706C14.0898 65.4357 14.7149 66.056 15.4859 66.056Z" fill="#FB7303"/>
<path d="M58.6148 63.2852C59.3928 63.2852 60.0216 63.9033 60.0216 64.6706C60.0216 65.4379 59.3928 66.056 58.6148 66.056C57.8369 66.056 57.2188 65.4379 57.2188 64.6706C57.2188 63.9033 57.8475 63.2852 58.6148 63.2852Z" fill="#FB7303"/>
<path d="M59.9039 49.9648C60.6819 49.9648 61.3106 50.5829 61.3106 51.3503C61.3106 52.1176 60.6819 52.7357 59.9039 52.7357C59.1259 52.7357 58.5078 52.1176 58.5078 51.3503C58.5078 50.5829 59.1366 49.9648 59.9039 49.9648Z" fill="#FB7303"/>
<path d="M37.9277 46.0234V47.7286C36.3078 47.9417 35.0183 48.5812 34.3682 50.0732C34.0484 50.4994 34.0484 51.0323 34.0484 51.6717C34.0484 52.5243 34.2616 53.1637 34.8051 53.8032C35.4552 54.4426 36.425 54.7623 37.2882 55.0821L38.1515 55.2952V57.5332C37.7252 57.4266 37.2882 57.4266 36.9685 57.2135C36.425 57.0003 35.679 56.6806 35.1355 56.3609C34.9223 56.2544 34.8157 56.1478 34.8157 56.0412L33.6328 58.4924C34.9223 59.3449 36.5422 59.7712 38.0555 59.9844V62.0092H39.2385V60.0909C40.2083 60.0909 41.2847 59.7712 42.1479 59.1318C42.5742 58.8121 42.798 58.4923 43.1177 58.0661C43.3309 57.6398 43.4374 57.1069 43.4374 56.4675C43.4374 54.9755 42.7873 54.0163 41.1781 53.3769C40.1017 52.9506 39.1319 52.7375 39.0254 52.7375V50.2863C40.2083 50.4995 41.615 51.2455 41.7216 51.352L42.9046 49.0074C42.4783 48.6877 41.8282 48.4746 41.1781 48.2615C40.528 48.0483 39.782 47.8352 39.1319 47.7286V46.0234H37.949H37.9277ZM38.8975 55.5083C39.3238 55.6149 39.6541 55.828 39.8673 55.9346C40.0804 56.1478 40.187 56.3609 40.187 56.5741C40.187 57.1069 39.7607 57.4267 38.8975 57.4267V55.5083ZM38.1408 52.3112C37.7145 52.2046 37.4907 51.9915 37.2776 51.8849C37.0644 51.6718 36.9579 51.4586 36.9579 51.2455C36.9579 50.606 37.3841 50.2863 38.1408 50.2863V52.3112Z" fill="#FB7303"/>
<path d="M38.3467 67.3358C30.9079 67.3358 24.876 61.3678 24.876 54.0143C24.876 53.2683 24.2259 52.6289 23.4692 52.6289C22.7126 52.6289 22.1797 53.2683 22.1797 54.0143C22.1797 62.8598 29.4053 70.0001 38.3467 70.0001C39.1033 70.0001 39.7428 69.3607 39.7428 68.6147C39.7428 67.9753 39.0927 67.3358 38.3467 67.3358Z" fill="#FB7303"/>
<path d="M14.0924 42.0781C11.833 42.0781 10 43.8899 10 46.1279C10 48.3659 11.833 50.1776 14.0924 50.1776C16.3517 50.1776 18.1847 48.3659 18.1847 46.1279C18.1847 43.8899 16.3517 42.0781 14.0924 42.0781ZM14.0924 47.4067C13.3357 47.4067 12.6963 46.7673 12.6963 46.0213C12.6963 45.2753 13.3464 44.6359 14.0924 44.6359C14.8384 44.6359 15.4884 45.2753 15.4884 46.0213C15.4884 46.7673 14.8384 47.4067 14.0924 47.4067Z" fill="#FB7303"/>
<path d="M64.0136 35.3652C60.9976 35.3652 58.6211 37.7098 58.6211 40.6938C58.6211 43.6778 60.9976 46.0224 64.0136 46.0224C67.0296 46.0224 69.4062 43.6778 69.4062 40.6938C69.4062 37.7098 66.923 35.3652 64.0136 35.3652ZM64.0136 43.3581C62.5003 43.3581 61.3174 42.1858 61.3174 40.6938C61.3174 39.2018 62.5003 38.0295 64.0136 38.0295C65.527 38.0295 66.7099 39.2018 66.7099 40.6938C66.7099 42.1858 65.4204 43.3581 64.0136 43.3581Z" fill="#FB7303"/>
</svg>
