<?xml version="1.0" encoding="UTF-8"?>
<svg id="Camada_2" xmlns="http://www.w3.org/2000/svg" viewBox="0 0 493.54 324">
  <defs>
    <style>
      .cls-1 {
        fill: #fb7302;
      }
    </style>
  </defs>
  <g id="Camada_2-2" data-name="Camada_2">
    <path class="cls-1" d="M126.84,55.67h0C56.79,55.67,0,112.46,0,182.52v120.82c0,2.21,1.79,4,4,4h48.66c2.21,0,4-1.79,4-4v-122.26c0-38.76,31.42-70.18,70.18-70.18h0c38.76,0,70.18,31.42,70.18,70.18v122.26c0,2.21,1.79,4,4,4h48.66c2.21,0,4-1.79,4-4v-120.82c0-70.05-56.79-126.84-126.84-126.84Z"/>
    <path class="cls-1" d="M377.17,91.26h-64.35V4c0-2.21-1.79-4-4-4h-48.66c-2.21,0-4,1.79-4,4v203.63c0,64.27,52.1,116.37,116.37,116.37h4.64c64.27,0,116.37-52.1,116.37-116.37h0c0-64.27-52.1-116.37-116.37-116.37ZM439.32,205.54c0,35.61-28.87,64.47-64.48,64.47h0c-35.61,0-64.47-28.87-64.47-64.47v-64.48h64.48c35.61,0,64.48,28.87,64.48,64.48h0Z"/>
  </g>
</svg>