<svg width="80" height="80" viewBox="0 0 80 80" fill="none" xmlns="http://www.w3.org/2000/svg">
<path d="M68.8607 38.7774C69.5085 37.9279 68.8607 36.7598 67.7882 36.7598H46.3051C45.8804 36.7598 45.445 36.9721 45.2326 37.3969L40.9317 43.6624L36.6309 37.3969C36.4185 37.0783 35.9831 36.7598 35.5583 36.7598H14.0753C13.0027 36.7598 12.355 37.9279 13.0027 38.7774L18.1638 46.4234V68.618C18.1638 69.3613 18.8115 69.9985 19.5549 69.9985H62.5209C63.2749 69.9985 63.9227 69.3613 63.9227 68.618V46.4234L68.8607 38.7774ZM61.1298 56.618H50.383V53.9632H61.1298V56.618ZM47.0591 39.4146H65.3245L61.7776 44.7243H43.5122L47.0591 39.4146ZM34.8044 39.4146L38.3512 44.7243H20.0859L16.539 39.4146H34.8044ZM20.8398 53.9632H22.231V56.618H20.8398V53.9632ZM20.8398 64.5826H32.9778C33.7318 64.5826 34.369 63.9454 34.369 63.2021C34.369 62.4587 33.7212 61.8215 32.9778 61.8215H20.8398V59.1667H23.5265C24.2805 59.1667 24.9177 58.5295 24.9177 57.7862V52.4765C24.9177 51.7331 24.2699 51.0959 23.5265 51.0959H20.8398V47.0606H39.6362V67.2374H20.8398V64.5826ZM42.3229 67.2374V47.3792H61.1192V51.3083H48.9812C48.2272 51.3083 47.5795 51.9455 47.5795 52.6889V57.9986C47.5795 58.7419 48.2272 59.3791 48.9812 59.3791H61.1192V61.9277H48.9812C48.2272 61.9277 47.5795 62.5649 47.5795 63.3083C47.5795 64.0516 48.2272 64.6888 48.9812 64.6888H61.1192V67.2374H42.3229Z" fill="#FB7303"/>
<path d="M45.0131 61.9277C45.7883 61.9277 46.4042 62.5437 46.4042 63.3083C46.4042 64.0729 45.7777 64.6888 45.0131 64.6888C44.2485 64.6888 43.6113 64.0729 43.6113 63.3083C43.6113 62.5437 44.2379 61.9277 45.0131 61.9277Z" fill="#FB7303"/>
<path d="M36.9615 61.9277C37.7367 61.9277 38.3632 62.5437 38.3632 63.3083C38.3632 64.0729 37.7367 64.6888 36.9615 64.6888C36.1862 64.6888 35.5703 64.0729 35.5703 63.3083C35.5703 62.5437 36.1969 61.9277 36.9615 61.9277Z" fill="#FB7303"/>
<path d="M67.7899 50.0348C67.7899 49.2915 67.1421 48.6543 66.3881 48.6543C65.6341 48.6543 64.9863 49.2915 64.9863 50.0348V64.6896C64.9863 65.4329 65.6341 66.0701 66.3881 66.0701C67.1421 66.0701 67.7899 65.4329 67.7899 64.6896V50.0348Z" fill="#FB7303"/>
<path d="M15.4771 48.6543C14.7231 48.6543 14.0859 49.2915 14.0859 50.0348V64.6896C14.0859 65.4329 14.7337 66.0701 15.4771 66.0701C16.2204 66.0701 16.8682 65.4329 16.8682 64.6896V50.0348C16.762 49.2915 16.1142 48.6543 15.4771 48.6543Z" fill="#FB7303"/>
<path d="M18.5901 21.0427C18.4839 20.9365 18.3777 20.9365 18.3777 20.8303L17.5176 22.5294C18.3777 23.0604 19.5565 23.4852 20.5229 23.4852V24.8657H21.2768V23.4852C22.3494 23.4852 23.422 23.0604 23.8574 22.1047C24.1759 21.4675 24.1759 20.6179 23.8574 19.9808C23.645 19.556 23.3157 19.1312 22.5724 18.8126C21.8184 18.4941 21.1812 18.3879 21.1812 18.3879V16.795C21.9352 16.9012 22.9016 17.4321 23.0078 17.5383L23.868 15.9454C23.5494 15.733 23.114 15.6268 22.6892 15.4144C22.2644 15.2021 21.7228 15.0959 21.2875 15.0959V13.9277H20.5335V15.2021C18.8131 15.4144 17.8468 16.4764 17.8468 17.8569C17.8468 18.7065 18.1653 19.3436 19.0255 19.7684C19.6733 20.087 20.3105 20.1932 20.5335 20.2994V21.7861C19.8857 21.6799 19.0255 21.3613 18.6007 21.0427H18.5901ZM21.1707 20.4056C21.4892 20.5117 21.7122 20.6179 21.8184 20.7241C22.0308 20.8303 22.0308 21.0427 22.0308 21.1489C22.0308 21.5737 21.7122 21.7861 21.1707 21.7861V20.4056ZM19.9813 17.9631C19.8751 17.8569 19.7689 17.7507 19.7689 17.5383C19.7689 17.1135 20.0875 16.9012 20.6291 16.9012V18.2817C20.3105 18.1755 20.0874 18.0693 19.9813 17.9631Z" fill="#FB7303"/>
<path d="M19.4506 28.6887V31.4497C19.4506 32.1931 20.0984 32.8302 20.8524 32.8302H32.9903V34.2108C32.9903 34.9541 33.6381 35.5913 34.3815 35.5913C35.1248 35.5913 35.7832 34.9541 35.7832 34.2108V31.5559C35.7832 30.8126 35.1355 30.1754 34.3815 30.1754H22.1373V28.7949C26.6506 28.1577 30.1975 24.2285 30.1975 19.556C30.1975 14.4587 26.0028 10.2109 20.7462 10.2109C15.4896 10.2109 11.2949 14.3525 11.2949 19.556C11.4011 24.1223 14.948 28.0515 19.4612 28.6887H19.4506ZM20.8417 12.8658C24.4948 12.8658 27.6063 15.8392 27.6063 19.556C27.6063 23.2728 24.601 26.2462 20.8417 26.2462C17.0825 26.2462 14.0772 23.0604 14.0772 19.4498C14.0772 15.8392 17.0825 12.8658 20.8417 12.8658Z" fill="#FB7303"/>
<path d="M38.6819 21.0427C38.5758 20.9365 38.4695 20.9365 38.4695 20.8303L37.6094 22.5294C38.4695 23.0604 39.6483 23.4852 40.6147 23.4852V24.8657H41.3686V23.4852C42.4412 23.4852 43.5138 23.0604 43.9492 22.1047C44.2677 21.4675 44.2677 20.6179 43.9492 19.9808C43.7368 19.556 43.4076 19.1312 42.6642 18.8126C41.9102 18.4941 41.2731 18.3879 41.2731 18.3879V16.795C42.0271 16.9012 42.9934 17.4321 43.0996 17.5383L43.9598 15.9454C43.6412 15.733 43.2058 15.6268 42.781 15.4144C42.3562 15.2021 41.8147 15.0959 41.3899 15.0959V13.9277H40.6359V15.2021C38.9156 15.4144 37.9492 16.4764 37.9492 17.8569C37.9492 18.3879 38.0554 18.9188 38.4908 19.2374C38.9156 19.6622 39.5634 19.8746 40.2111 20.087L40.7527 20.2994V21.7861C40.1049 21.6799 39.1386 21.3613 38.7138 21.0427H38.6819ZM41.2518 20.4056C41.5704 20.5117 41.7934 20.6179 41.8996 20.7241C42.112 20.8303 42.112 21.0427 42.112 21.1489C42.112 21.5737 41.7934 21.7861 41.2518 21.7861V20.4056ZM40.1793 17.9631C40.0731 17.8569 39.9669 17.7507 39.9669 17.5383C39.9669 17.1135 40.2855 16.9012 40.8271 16.9012V18.2817C40.5085 18.1755 40.2855 18.0693 40.1793 17.9631Z" fill="#FB7303"/>
<path d="M39.648 28.6894V35.3796C39.648 36.123 40.2958 36.7602 41.0391 36.7602C41.7825 36.7602 42.4303 36.123 42.4303 35.3796V28.6894C46.9435 28.0522 50.4904 24.1231 50.4904 19.4505C50.4904 14.3532 46.2957 10.1055 41.0391 10.1055C35.7825 10.1055 31.5879 14.247 31.5879 19.4505C31.5879 24.1231 35.0286 28.0522 39.648 28.6894ZM40.9329 12.8665C44.586 12.8665 47.6975 15.84 47.6975 19.5567C47.6975 23.2735 44.6922 26.2469 40.9329 26.2469C37.1737 26.2469 34.1684 23.2735 34.1684 19.5567C34.1684 15.84 37.2799 12.8665 40.9329 12.8665Z" fill="#FB7303"/>
<path d="M58.8694 21.0427C58.7633 20.9365 58.657 20.9365 58.657 20.8303L57.7969 22.5294C58.657 23.0604 59.8358 23.4852 60.8021 23.4852V24.8657H61.5561V23.4852C62.6287 23.4852 63.7013 23.0604 64.1367 22.1047C64.4552 21.4675 64.4552 20.6179 64.1367 19.9808C63.9243 19.556 63.5951 19.1312 62.8517 18.8126C62.0977 18.4941 61.4499 18.3879 61.4499 18.3879V16.795C62.2039 16.9012 63.1703 17.4321 63.2765 17.5383L64.1367 15.9454C63.8181 15.733 63.3827 15.6268 62.9579 15.4144C62.5331 15.2021 61.9915 15.0959 61.5667 15.0959V13.9277H60.8128V15.2021C59.0924 15.4144 58.1261 16.4764 58.1261 17.8569C58.1261 18.3879 58.2323 18.9188 58.6677 19.2374C59.0924 19.6622 59.7402 19.8746 60.388 20.087L60.9296 20.2994V21.7861C60.1756 21.6799 59.3154 21.3613 58.8907 21.0427H58.8694ZM61.4499 20.4056C61.7685 20.5117 61.9915 20.6179 62.0977 20.7241C62.3101 20.8303 62.3101 21.0427 62.3101 21.1489C62.3101 21.5737 61.9915 21.7861 61.4499 21.7861V20.4056ZM60.2712 17.9631C60.165 17.8569 60.0588 17.7507 60.0588 17.5383C60.0588 17.1135 60.3774 16.9012 60.919 16.9012V18.2817C60.6004 18.1755 60.3774 18.0693 60.2712 17.9631Z" fill="#FB7303"/>
<path d="M59.7285 28.6901V30.0706H47.6967C46.9427 30.0706 46.2949 30.7078 46.2949 31.4512V34.106C46.2949 34.8494 46.9427 35.4865 47.6967 35.4865C48.4507 35.4865 49.0985 34.8494 49.0985 34.106V32.7255H61.2364C61.9904 32.7255 62.6276 32.0883 62.6276 31.345V28.5839C67.1408 27.9468 70.6877 24.0176 70.6877 19.3451C70.6877 14.2477 66.493 10 61.2364 10C55.9798 10 51.679 14.3539 51.679 19.4513C51.679 24.1238 55.2258 28.053 59.7391 28.6901H59.7285ZM61.1302 12.8672C64.7833 12.8672 67.8948 15.8407 67.8948 19.5575C67.8948 23.2742 64.8895 26.2477 61.1302 26.2477C57.371 26.2477 54.3657 23.2742 54.3657 19.5575C54.3657 15.8407 57.371 12.8672 61.1302 12.8672Z" fill="#FB7303"/>
<path d="M69.1822 28.6875C69.9574 28.6875 70.5839 29.3034 70.5839 30.068C70.5839 30.8326 69.9574 31.4485 69.1822 31.4485C68.4069 31.4485 67.791 30.8326 67.791 30.068C67.791 29.3034 68.4176 28.6875 69.1822 28.6875Z" fill="#FB7303"/>
<path d="M14.0756 30.0703C14.8508 30.0703 15.4667 30.6862 15.4667 31.4508C15.4667 32.2154 14.8402 32.8314 14.0756 32.8314C13.311 32.8314 12.6738 32.2154 12.6738 31.4508C12.6738 30.6862 13.3003 30.0703 14.0756 30.0703Z" fill="#FB7303"/>
<path d="M11.3911 43.3457C12.1664 43.3457 12.7929 43.9616 12.7929 44.7262C12.7929 45.4908 12.1664 46.1068 11.3911 46.1068C10.6159 46.1068 10 45.4908 10 44.7262C10 43.9616 10.6265 43.3457 11.3911 43.3457Z" fill="#FB7303"/>
<path d="M69.1822 67.2402C69.9574 67.2402 70.5839 67.8562 70.5839 68.6208C70.5839 69.3854 69.9574 70.0013 69.1822 70.0013C68.4069 70.0013 67.791 69.3854 67.791 68.6208C67.791 67.8562 68.4176 67.2402 69.1822 67.2402Z" fill="#FB7303"/>
<path d="M69.1822 44.6191C69.9574 44.6191 70.5839 45.2351 70.5839 45.9997C70.5839 46.7643 69.9574 47.3802 69.1822 47.3802C68.4069 47.3802 67.791 46.7643 67.791 45.9997C67.791 45.2351 68.4176 44.6191 69.1822 44.6191Z" fill="#FB7303"/>
</svg>
