<svg width="80" height="80" viewBox="0 0 80 80" fill="none" xmlns="http://www.w3.org/2000/svg">
<path d="M40.0474 57.957C40.8254 57.957 41.4435 58.5751 41.4435 59.3425C41.4435 60.1098 40.8147 60.7279 40.0474 60.7279C39.2801 60.7279 38.6406 60.1098 38.6406 59.3425C38.6406 58.5751 39.2694 57.957 40.0474 57.957Z" fill="#FB7303"/>
<path d="M38.7544 48.6875C39.5324 48.6875 40.1505 49.3056 40.1505 50.0729C40.1505 50.8403 39.5218 51.4584 38.7544 51.4584C37.9871 51.4584 37.3477 50.8403 37.3477 50.0729C37.3477 49.3056 37.9764 48.6875 38.7544 48.6875Z" fill="#FB7303"/>
<path d="M44.1383 10C44.9163 10 45.5451 10.6181 45.5451 11.3854C45.5451 12.1528 44.9163 12.7709 44.1383 12.7709C43.3603 12.7709 42.7422 12.1528 42.7422 11.3854C42.7422 10.6181 43.371 10 44.1383 10Z" fill="#FB7303"/>
<path d="M13.0914 14.0527C13.8694 14.0527 14.4982 14.6708 14.4982 15.4382C14.4982 16.2055 13.8694 16.8236 13.0914 16.8236C12.3134 16.8236 11.6953 16.2055 11.6953 15.4382C11.6953 14.6708 12.3241 14.0527 13.0914 14.0527Z" fill="#FB7303"/>
<path d="M33.3629 15.3301C34.1409 15.3301 34.7697 15.9482 34.7697 16.7155C34.7697 17.4828 34.1409 18.101 33.3629 18.101C32.5849 18.101 31.9668 17.4828 31.9668 16.7155C31.9668 15.9482 32.5956 15.3301 33.3629 15.3301Z" fill="#FB7303"/>
<path d="M53.5153 31.3145C54.2932 31.3145 54.922 31.9326 54.922 32.6999C54.922 33.4672 54.2932 34.0853 53.5153 34.0853C52.7373 34.0853 52.1191 33.4672 52.1191 32.6999C52.1191 31.9326 52.7479 31.3145 53.5153 31.3145Z" fill="#FB7303"/>
<path d="M56.2106 68.7221C56.9816 68.7221 57.6067 68.1018 57.6067 67.3366C57.6067 66.5714 56.9816 65.9512 56.2106 65.9512C55.4395 65.9512 54.8145 66.5714 54.8145 67.3366C54.8145 68.1018 55.4395 68.7221 56.2106 68.7221Z" fill="#FB7303"/>
<path d="M66.2406 19.3786H60.848V15.2223C60.848 14.4762 60.1979 13.9434 59.4519 13.9434L48.2403 14.0499C47.6968 14.0499 47.1639 14.3696 47.0574 14.9025C46.8442 15.4354 46.9508 15.9683 47.3771 16.3946L49.9668 18.9523L49.3167 19.3786H13.8491C11.1528 19.3786 9 21.5101 9 24.1744V59.8765C9 62.5408 11.1528 64.6723 13.8491 64.6723H26.7871C25.8173 67.2301 27.8635 70.001 30.5598 70.001H49.4233C52.2262 70.001 54.1658 67.2301 53.196 64.6723H66.134C68.8303 64.6723 70.9831 62.5408 70.9831 59.8765V24.1744C71.0897 21.5101 68.9369 19.3786 66.2406 19.3786ZM64.3009 31.4214H57.5122C56.7555 31.4214 56.1161 32.0609 56.1161 32.8069C56.1161 33.5529 56.7662 34.1923 57.5122 34.1923H64.3009V54.2281H58.8018C60.5282 52.5229 61.6046 50.1783 61.6046 47.514C61.6046 42.3985 57.395 38.1355 52.1196 38.1355C46.8442 38.1355 42.6346 42.2919 42.6346 47.514C42.6346 50.0717 43.711 52.5229 45.4374 54.2281H15.7887V51.3506H34.6522C35.4089 51.3506 36.0483 50.7112 36.0483 49.9652C36.0483 49.2192 35.3982 48.5797 34.6522 48.5797H15.7887V26.0927H42.528L36.1656 32.3806L31.423 27.6913C30.8795 27.1585 30.0269 27.1585 29.4834 27.6913L18.8154 38.2421C18.2719 38.775 18.2719 39.6276 18.8154 40.1604L23.0144 44.3168C23.5579 44.8496 24.4212 44.8496 24.954 44.3168L30.3467 38.9881L35.0892 43.6773C35.6327 44.2102 36.4853 44.2102 37.0288 43.6773L55.8923 25.027L58.482 27.5848C58.9083 28.0111 59.4519 28.1176 59.9954 27.9045C60.5389 27.6913 60.8586 27.1585 60.8586 26.6256V26.0927H64.3116V31.4214H64.3009ZM45.4374 47.4074C45.4374 43.7839 48.4535 40.6933 52.2262 40.6933C55.9989 40.6933 59.0149 43.6773 59.0149 47.4074C59.0149 51.1375 55.9989 54.1215 52.2262 54.1215C48.4535 54.1215 45.4374 51.0309 45.4374 47.4074ZM51.6826 20.7641L54.0592 23.1087L36.1656 40.7999L31.423 36.1106C30.8795 35.5778 30.0269 35.5778 29.4834 36.1106L24.0908 41.4393L21.7142 39.2013L30.4426 30.5688L35.1851 35.258C35.7286 35.7909 36.5812 35.7909 37.1247 35.258L51.6826 20.7641ZM58.0451 16.5011L58.1517 23.2153C57.6081 22.6824 52.1089 17.2471 51.3629 16.5011H58.0451ZM50.8301 66.0577C50.8301 66.8038 50.18 67.4432 49.4339 67.4432H30.677C29.9204 67.4432 29.2703 66.8038 29.2703 66.0577C29.2703 65.3117 29.9204 64.6723 30.677 64.6723H49.5405C50.1906 64.6723 50.8301 65.3117 50.8301 66.0577ZM68.3934 59.8765C68.3934 61.0488 67.4235 62.008 66.2406 62.008H13.8491C12.6661 62.008 11.6963 61.0488 11.6963 59.8765V24.1744C11.6963 23.0021 12.6661 22.0429 13.8491 22.0429H46.5138L45.1177 23.4284H14.4992C13.7425 23.4284 13.0924 24.0678 13.0924 24.8139V55.507C13.0924 56.253 13.7425 56.8925 14.4992 56.8925H65.7077C66.4644 56.8925 67.1038 56.253 67.1038 55.507V24.7073C67.1038 23.9613 66.4537 23.3218 65.7077 23.3218H60.8586V21.9364H66.2512C67.4342 21.9364 68.404 22.8955 68.404 24.0678V59.8765H68.3934Z" fill="#FB7303"/>
<path d="M66.9954 66.0566H60.2067C59.45 66.0566 58.8105 66.6961 58.8105 67.4421C58.8105 68.1881 59.4606 68.8276 60.2067 68.8276H66.9954C67.7521 68.8276 68.3915 68.1881 68.3915 67.4421C68.3915 66.5895 67.7414 66.0566 66.9954 66.0566Z" fill="#FB7303"/>
<path d="M23.8775 65.9512C24.6555 65.9512 25.2736 66.5693 25.2736 67.3366C25.2736 68.1039 24.6448 68.7221 23.8775 68.7221C23.1101 68.7221 22.4707 68.1039 22.4707 67.3366C22.4707 66.5693 23.0995 65.9512 23.8775 65.9512Z" fill="#FB7303"/>
<path d="M19.8801 66.0566H13.0914C12.3348 66.0566 11.6953 66.6961 11.6953 67.4421C11.6953 68.1881 12.3454 68.8276 13.0914 68.8276H19.8801C20.6368 68.8276 21.2869 68.1881 21.2869 67.4421C21.1803 66.5895 20.5302 66.0566 19.8801 66.0566Z" fill="#FB7303"/>
<path d="M54.1635 46.7681C53.4068 46.4484 52.6502 46.3418 52.5436 46.2353V44.5301C53.4068 44.6366 54.4832 45.1695 54.5898 45.3826L55.5596 43.6775C55.2399 43.4643 54.8029 43.2512 54.2701 43.0381C53.7266 42.8249 53.3003 42.7183 52.6502 42.7183V41.4395H51.7869V42.7183C49.8473 42.9315 48.8775 44.1038 48.8775 45.5958C48.8775 46.2352 48.984 46.7681 49.5276 47.1944C49.9539 47.6207 50.7105 47.9404 51.3606 48.1536L52.0107 48.3667V50.0719C51.691 50.0719 51.3606 49.9653 51.1475 49.8587C50.7212 49.7522 50.1777 49.539 49.7407 49.2193C49.6341 49.1127 49.5276 49.0061 49.421 49.0061L48.4512 50.8179C49.421 51.4573 50.604 51.7771 51.7976 51.8836V53.3757H52.6608V51.8836C53.4175 51.8836 54.1742 51.6705 54.8136 51.2442C55.1333 51.031 55.3571 50.7113 55.4637 50.3916C55.7834 49.7522 55.7834 48.6864 55.5703 48.047C55.4637 47.5141 55.0268 47.0878 54.1635 46.7681ZM52.0107 46.1287C51.691 46.0221 51.4672 45.9155 51.3606 45.8089C51.2541 45.7024 51.1475 45.4892 51.1475 45.2761C51.1475 44.8498 51.4672 44.6366 52.0107 44.5301V46.1287ZM52.5436 49.9653V48.4733C52.8633 48.5798 53.0871 48.6864 53.3003 48.793C53.5134 48.8996 53.62 49.1127 53.62 49.3259C53.5134 49.7522 53.1937 49.9653 52.5436 49.9653Z" fill="#FB7303"/>
<path d="M22.5787 18.0996C24.8381 18.0996 26.6712 16.2878 26.6712 14.0498C26.6712 11.8117 24.8381 10 22.5787 10C20.3194 10 18.4863 11.8117 18.4863 14.0498C18.4863 16.2878 20.3194 18.0996 22.5787 18.0996ZM22.5787 12.7709C23.3354 12.7709 23.9749 13.4103 23.9749 14.1564C23.9749 14.9024 23.3248 15.5418 22.5787 15.5418C21.8327 15.5418 21.172 14.9024 21.172 14.1564C21.172 13.3038 21.8221 12.7709 22.5787 12.7709Z" fill="#FB7303"/>
<path d="M66.3464 16.713C68.1795 16.713 69.6928 15.221 69.6928 13.4093C69.6928 11.5975 68.1795 10.1055 66.3464 10.1055C64.5133 10.1055 63 11.5975 63 13.4093C63 15.221 64.5133 16.713 66.3464 16.713ZM66.3464 12.7698C66.6661 12.7698 66.9965 13.0895 66.9965 13.4093C66.9965 13.729 66.6768 14.0487 66.3464 14.0487C66.016 14.0487 65.6963 13.729 65.6963 13.4093C65.6963 13.0895 65.9095 12.7698 66.3464 12.7698Z" fill="#FB7303"/>
</svg>
